<?xml version="1.0" encoding="utf-8"?>
<!-- Generator: Adobe Illustrator 20.1.0, SVG Export Plug-In . SVG Version: 6.00 Build 0)  -->
<svg version="1.1" id="Layer_1" xmlns="http://www.w3.org/2000/svg" xmlns:xlink="http://www.w3.org/1999/xlink" x="0px" y="0px"
	 viewBox="0 0 300 300" enable-background="new 0 0 300 300" xml:space="preserve">
<g>
	<path fill="#18ABE2" d="M115,138.9H93.4v-19.7h19.3c4.3,0,7.8,0.5,10.5,1.4c3.2,1.3,4.8,4.1,4.8,8.3c0,3.7-1.2,6.2-3.6,7.8
		C122.1,138.2,118.8,138.9,115,138.9z"/>
	<path fill="#18ABE2" d="M129.9,164.7c0,5.4-1.9,9.1-5.9,11.2c-2.2,1-5.2,1.6-9,1.6H93.4v-23.7h21.9c3.7,0,6.7,0.5,8.9,1.4
		C127.9,156.9,129.9,160,129.9,164.7z"/>
	<path fill="#006974" d="M197.1,143c-2.8-2.4-6.1-3.5-10.2-3.5c-4.4,0-7.9,1.2-10.3,3.7c-2.4,2.5-4,5.9-4.6,10.2h29.6
		C201.3,148.9,199.9,145.4,197.1,143z M197.1,143c-2.8-2.4-6.1-3.5-10.2-3.5c-4.4,0-7.9,1.2-10.3,3.7c-2.4,2.5-4,5.9-4.6,10.2h29.6
		C201.3,148.9,199.9,145.4,197.1,143z M150,10C72.7,10,10,72.7,10,150.1C10,227.4,72.7,290,150,290c77.3,0,140-62.6,140-139.9
		C290,72.7,227.3,10,150,10z M144.6,180.2c-1.7,2.8-3.7,5-6.2,7c-2.9,2.2-6.2,3.7-10.1,4.4c-3.8,0.8-8,1.2-12.6,1.2h-40v-88.9h42.9
		c10.9,0.1,18.6,3.2,23.1,9.5c2.6,3.7,4.1,8.3,4.1,13.5c0,5.4-1.4,9.8-4.2,13.1c-1.4,1.8-3.7,3.6-6.7,5c4.6,1.7,7.9,4.3,10.2,7.9
		c2.4,3.6,3.5,7.9,3.5,13C148.6,171.2,147.2,176,144.6,180.2z M167.6,108h38.1v11.2h-38.1V108z M178.5,178.6
		c2.6,1.7,5.8,2.5,9.5,2.5c3.8,0,7.1-1.1,9.5-3c1.4-1.1,2.6-2.6,3.6-4.6h17.5c-0.4,3.8-2.5,7.8-6.4,11.9c-5.9,6.4-14.1,9.6-24.7,9.6
		c-8.8,0-16.4-2.6-23.1-8.2c-6.7-5.3-10.1-14.1-10.1-26.3c0-11.4,3-20.1,9.1-26.3c6-6,13.8-9.1,23.5-9.1c5.6,0,10.8,1.1,15.5,3.1
		c4.6,2,8.4,5.3,11.3,9.7c2.8,4,4.6,8.5,5.3,13.7c0.5,3,0.7,7.3,0.6,13h-47.9C171.9,171.3,174.2,176,178.5,178.6z M186.9,139.5
		c-4.4,0-7.9,1.2-10.3,3.7c-2.4,2.5-4,5.9-4.6,10.2h29.6c-0.4-4.6-1.8-8-4.6-10.4C194.3,140.6,191,139.5,186.9,139.5z"/>
	<path fill="#FFFFFF" d="M115,138.9H93.4v-19.7h19.3c4.3,0,7.8,0.5,10.5,1.4c3.2,1.3,4.8,4.1,4.8,8.3c0,3.7-1.2,6.2-3.6,7.8
		C122.1,138.2,118.8,138.9,115,138.9z"/>
	<path fill="#FFFFFF" d="M129.9,164.7c0,5.4-1.9,9.1-5.9,11.2c-2.2,1-5.2,1.6-9,1.6H93.4v-23.7h21.9c3.7,0,6.7,0.5,8.9,1.4
		C127.9,156.9,129.9,160,129.9,164.7z"/>
	<path fill="#006974" d="M128.1,129c0,3.7-1.2,6.2-3.6,7.8c-2.4,1.4-5.6,2.2-9.5,2.2H93.4v-19.7h19.3c4.3,0,7.8,0.5,10.5,1.4
		C126.5,122,128.1,124.8,128.1,129z"/>
	<path fill="#006974" d="M129.9,164.7c0,5.4-1.9,9.1-5.9,11.2c-2.2,1-5.2,1.6-9,1.6H93.4v-23.7h21.9c3.7,0,6.7,0.5,8.9,1.4
		C127.9,156.9,129.9,160,129.9,164.7z"/>
	<path fill="#FFFFFF" d="M201.7,153.4h-29.6c0.6-4.3,2.2-7.7,4.6-10.2c2.4-2.5,5.9-3.7,10.3-3.7c4.1,0,7.4,1.1,10.2,3.5
		C199.9,145.4,201.3,148.9,201.7,153.4z"/>
	<path fill="#006974" d="M201.7,153.4h-29.6c0.6-4.3,2.2-7.7,4.6-10.2c2.4-2.5,5.9-3.7,10.3-3.7c4.1,0,7.4,1.1,10.2,3.5
		C199.9,145.4,201.3,148.9,201.7,153.4z"/>
</g>
<g>
</g>
<g>
</g>
<g>
</g>
<g>
</g>
<g>
</g>
<g>
</g>
<g>
</g>
<g>
</g>
<g>
</g>
<g>
</g>
<g>
</g>
<g>
</g>
<g>
</g>
<g>
</g>
<g>
</g>
</svg>
