<?xml version="1.0" encoding="utf-8"?>
<!-- Generator: Adobe Illustrator 20.1.0, SVG Export Plug-In . SVG Version: 6.00 Build 0)  -->
<svg version="1.1" id="Layer_1" xmlns="http://www.w3.org/2000/svg" xmlns:xlink="http://www.w3.org/1999/xlink" x="0px" y="0px"
	 viewBox="0 0 405 600" enable-background="new 0 0 405 600" xml:space="preserve">
<g>
	<g>
		<g>
			<g>
				<g>
					<path fill="#5AB7B2" d="M291,215.1c-2.1,5-7.9,11.2-15.7,12.7c-0.5,0.1-1.1,0-1.6-0.3s-0.8-0.8-0.8-1.4c0-0.3-0.1-0.7-0.2-1.3
						c-2.4-19.5-8.4-29.4-17.9-29.4c-12.5,0-18.8,16.6-19,50.8H251c-2.5-2.7-4.1-8-4.1-14c0-8.9,3.6-16,8-16c4.4,0,8,7.2,8,16
						c0,6-1.7,11.2-4.1,14H276c1.1,0,2,0.9,2,2c0,1.1-0.9,2-2,2h-42.1c-1.1,0-2-0.9-2-2c0-24.5,2.4-57,23.1-57
						c9.4,0,15.9,7,19.6,20.7c1.4-0.7,2.5-2.5,3.2-4c0.5-1,1.7-1.5,2.7-1c1,0.5,1.5,1.7,1,2.7c-1.8,3.9-4,5.6-6,6.3
						c0.1,0.4,0.2,0.7,0.2,1.1c2.1-1.1,5.3-3,6.8-6c0.5-1,1.7-1.4,2.7-0.9c1,0.5,1.4,1.7,0.9,2.7c-2.3,4.7-7.2,7.1-9.5,8.3
						c-0.1,0-0.1,0.1-0.2,0.1c0.1,0.7,0.2,1.3,0.3,1.9c5.6-1.9,9.3-6.6,10.6-9.7c0.4-1,1.6-1.6,2.7-1.1
						C290.9,212.9,291.4,214.1,291,215.1z"/>
				</g>
			</g>
		</g>
		<g>
			<g>
				<path fill="#5AB7B2" d="M215,276.6c-0.5,0-1-0.2-1.4-0.6c-4.1-4.1-8.8-4.5-12-4.1c-4.1,0.5-7.6,2.4-9.3,4.1
					c-0.8,0.8-2.1,0.8-2.9,0c-0.8-0.8-0.8-2.1,0-2.9c2.7-2.7,7.3-4.8,11.7-5.3c4.1-0.5,10.1,0,15.4,5.3c0.8,0.8,0.8,2.1,0,2.9
					C216.1,276.4,215.6,276.6,215,276.6z"/>
			</g>
		</g>
		<g>
			<path fill="#5AB7B2" d="M231.2,305.9h-56.6c-1.1,0-2,0.9-2,2v1.3c0,16.7,13.6,30.3,30.3,30.3c16.7,0,30.3-13.6,30.3-30.3v-1.3
				C233.2,306.8,232.3,305.9,231.2,305.9z M202.9,335.5c-14.2,0-25.9-11.4-26.2-25.5h52.5C228.8,324.1,217.2,335.5,202.9,335.5z"/>
		</g>
	</g>
	<g>
		<g>
			<path fill="#5AB7B2" d="M381.3,582.6c-3.8-1.1-11.4-13.2-18.9-81.4c-5.3-47.9-9.5-111.7-13.5-173.4
				c-4.8-73.6-9.7-149.6-16.6-197.1c-7-48.1-31.9-89.1-66.7-109.7c-22.4-13.3-46.4-16.4-67.5-8.8c-38.1-7.9-74-0.2-101,21.7
				c-40.7,32.9-61.3,95.2-61.3,185c0,53.5,1.3,104.9,2.5,150.3c2.9,110,5.2,196.9-15,217.1c-0.7,0.7-1,1.7-0.7,2.6
				c0.2,0.9,0.9,1.7,1.8,1.9c4.2,1.3,9.2,1.9,14.8,1.9c29.1,0,72.1-17.3,83.2-45c0,0,0-0.1,0-0.1c12.7-22.8,37.5-141.4,34.4-183.6
				c15.9,10.1,32.9,16.5,48.9,16.5h0.2c16-0.1,30.8-6.5,43.7-16.3c0.5,51.3,7.9,94.2,24.5,142.2v0.1c0.3,1.6,0.5,3.2,0.8,4.7
				c3.4,17.9,11.2,43.1,29.5,60.8c19.3,18.8,45.8,24.2,76.7,15.7c1.2-0.3,2-1.4,2-2.6C383.3,584,382.5,582.9,381.3,582.6z
				 M125.8,523c1.3-40.7-6.2-115.6-11.5-169.1c-1.3-12.6-2.4-24.1-3.3-33.4c10.3,14.6,24.4,28.7,40,39.7h0
				C155.5,389.2,138.8,478.7,125.8,523z M206,375.1h-0.2c-27.8,0-71-24.7-95.8-66.1c-0.1-0.4-0.1-0.7-0.1-1
				c-0.1-0.8-0.1-1.5-0.2-2.2c-0.2-3.5-0.4-6-0.4-7.7c0-1.7,0.5-4.1,1.3-7.1c0-0.2,0.1-0.3,0.1-0.5c0.1-0.1,0.1-0.3,0.1-0.4
				c2.7-9.1,8.7-23.3,16.3-39.9h36c1.1,0,2-0.9,2-2c0-19.2-1.5-43.5-12.2-52.9c1.6-3.3,3.1-6.5,4.6-9.8c3.2,1.8,5.8,3.7,7.2,5.5
				c0.4,0.5,0.9,0.8,1.5,0.8h0.1c0.5,0,1-0.2,1.4-0.6c3.9-3.9,4.3-11.2,2.4-16.1c-0.1-0.3-0.3-0.5-0.5-0.7c-1.4-1.4-3.1-2.8-5.2-4.1
				c17.2-37,32-71.2,35.5-90.7c16.2,22.9,42.2,52.3,77.5,87.8c-2.7-1.1-5.7-1.9-9.1-2.5c-18.7-3.4-32.6,2.6-39.4,9.5
				c-0.2,0.2-0.4,0.4-0.5,0.7c-1.9,4.9-1.5,12.2,2.4,16.1c0.4,0.4,0.9,0.6,1.4,0.6h0.1c0.6,0,1.1-0.3,1.5-0.8
				c4.1-5.3,18.7-11.8,26.9-12c9.5-0.3,15.9,0.9,26.1,4.5c0.7,2.3,1.3,4.9,2,7.7c1,4.4,1.9,9.5,2.8,15.3c0.2,1.2,0.4,2.3,0.5,3.5
				c0.3,2.4,0.7,4.9,1,7.6c0.2,1.4,0.3,2.9,0.5,4.4c1.7,16.6,2.8,37,2.5,60.8c-0.6,2.6-1.3,5.3-2,7.7C286,320.8,249.3,375,206,375.1
				z M129.2,246.2c1.6-3.6,3.4-7.3,5.2-11.2c0.4,4.8,1.9,8.9,4,11.2H129.2z M143.1,216.3c1.6-3.3,3.1-6.6,4.7-10
				c1.1-2.3,2.2-4.7,3.4-7.1c6.5,6.8,9.8,22.3,10,46.9h-15.1c2.5-2.7,4.1-8,4.1-14C150.2,224,147.1,217.2,143.1,216.3z M159.4,181.9
				c1.2-2.6,2.4-5.2,3.6-7.7c1.4,0.9,2.6,1.9,3.7,2.9c1,2.9,1,6.8-0.4,9.6C164.5,185,162.1,183.4,159.4,181.9z M284.3,175.6
				c0.4,0.9,0.9,2,1.3,3.2c-9.1-3-15.6-4-24.6-3.7c-8.5,0.2-21.9,6-28.1,11.6c-1.4-2.8-1.4-6.7-0.4-9.6c6.2-5.9,18.6-11.1,35.5-8
				C275,170.3,280.3,172.8,284.3,175.6z M272.3,482.2c-11.8-40-16.9-77.9-17-122.3c19-16.3,33.4-39.1,40.7-57.1
				c-1.4,36.6-6.3,86.5-19.8,141.9C273.4,456.2,272,469.1,272.3,482.2z M308.4,568.2c-28.7-27.8-36.2-84-26.9-122.2
				c16.2-66.5,20-125.2,20.4-162.8c0.4-39.6-2.9-76-8.4-97.3c-0.6-2.3-1.2-4.5-1.9-6.5c2.3,1.4,4.5,2.7,6.8,3.9
				c1.3,0.7,2.6,1.4,3.9,2.1c2.3,1.2,4.6,2.4,6.7,3.6c0.4,0.2,0.9,0.4,1.4,0.4c0.9,0,1.9-0.5,2.3-1.4c0.8-1.3,0.3-3-1-3.7
				c-2.2-1.3-4.5-2.5-6.9-3.7c-6.6-3.4-13.4-7-19.1-12.6c-40.4-40.4-69-73.1-85.1-97.3c-0.7-1-1.9-1.4-3.1-1.1
				c-1.1,0.4-1.9,1.4-1.9,2.6c0,16-16.7,54.9-35.7,95.7c-0.6,1.2-1.1,2.5-1.7,3.7c-1.2,2.6-2.5,5.2-3.7,7.8
				c-0.6,1.3-1.1,2.5-1.7,3.7c-1.4,3.1-2.9,6.2-4.4,9.3c-0.3,0.6-0.6,1.3-0.9,1.9c-0.3,0.6-0.6,1.3-0.9,1.9
				c-1.2,2.6-2.5,5.3-3.7,7.9c-7.1,15-13.9,29.3-19.8,42.2c-0.3,0.7-0.6,1.4-0.9,2c-0.3,0.7-0.6,1.4-0.9,2
				c-7.2,15.8-12.7,29.1-15.4,38.3c0,0.1-0.1,0.1-0.1,0.2c0,0.1-0.1,0.1-0.1,0.2c-17.6,54.1-18.9,138.3-18.9,162.8
				c0,6.5,0.1,12.7,0.1,18.4c0.3,39.3,0.5,60.9-17.7,79.1c-1.1,1.1-1.1,2.8,0,3.8c0.5,0.5,1.2,0.8,1.9,0.8c0.7,0,1.4-0.3,1.9-0.8
				c19.9-19.8,19.7-42.3,19.3-83c-0.1-5.8-0.1-11.9-0.1-18.4c0-42,3.4-96.9,12.6-138.6c0.9,10.4,2.3,24.8,4,41.3
				c6.4,63.6,17,170.1,8.6,191.2c-11.3,28.5-61.5,45.5-87.2,41c18.6-26.4,16.5-107.4,13.6-217.5c-1.2-45.3-2.5-96.7-2.5-150.1
				c0-88.1,19.9-148.9,59.3-180.7c25.9-21,60.5-28.3,97.2-20.4c0.5,0.1,1,0.1,1.5-0.1c19.7-7.4,42.3-4.5,63.5,8.1
				c33.4,19.8,57.3,59.3,64.1,105.8c6.9,47.2,11.8,123.2,16.6,196.6c9.3,142.9,16.4,235.3,31.3,255.6
				C347.8,590,325.4,584.8,308.4,568.2z"/>
		</g>
		<g>
			<path fill="#5AB7B2" d="M191.4,47c-2,6.4-20.8,44.2-42.6,88.1c-4.8,9.7-9.7,19.5-14.6,29.4c-0.7,1.5-1.4,2.9-2.2,4.4
				c-1.1,2.1-2.1,4.3-3.1,6.4c-0.7,1.5-1.5,2.9-2.2,4.4c-5.3,10.7-10.4,21-15.1,30.7c-0.3,0.6-0.6,1.2-0.9,1.8v0
				c-0.3,0.5-0.5,1.1-0.8,1.6c-0.7,1.5-1.5,3-2.2,4.5c-7.9,16.3-14.3,30-18,38.6C65.3,314.2,67.6,389,69.2,438.4
				c0.3,10.4,0.6,19.3,0.6,27c0,1.5-1.2,2.7-2.7,2.7s-2.7-1.2-2.7-2.7c0-7.6-0.3-16.5-0.6-26.8c-1.5-49.9-3.9-125.4,21.1-183.9
				c6.1-14.4,19.8-42.6,35.2-73.7c0.8-1.6,1.6-3.2,2.3-4.8c0.9-1.9,1.9-3.8,2.8-5.7c0.8-1.6,1.6-3.3,2.4-4.9h0
				c5.5-11,11-22.2,16.4-33c20.8-41.8,40.4-81.3,42.3-87.3c0.4-1.4,2-2.2,3.4-1.8C191,44,191.8,45.6,191.4,47z"/>
		</g>
		<g>
			<path fill="#5AB7B2" d="M54.8,305.3c-1.5,0-2.7-1.2-2.7-2.7c0-31.3,1.3-69.2,10.9-113.4c16.9-77.7,66.6-158,120.7-158
				c1.5,0,2.7,1.2,2.7,2.7s-1.2,2.7-2.7,2.7c-50.6,0-99.3,79.8-115.3,153.7c-9.5,43.6-10.8,81.2-10.8,112.2
				C57.5,304.1,56.3,305.3,54.8,305.3z"/>
		</g>
		<g>
			<path fill="#5AB7B2" d="M297.1,144.8c-0.5,0-1-0.1-1.4-0.4c-42.9-25.9-77.5-78.7-81.3-97.7c-0.3-1.5,0.7-2.9,2.1-3.2
				c1.5-0.3,2.9,0.7,3.2,2.1c3.2,16.2,36.3,68.5,78.7,94.1c1.3,0.8,1.7,2.5,0.9,3.7C298.9,144.3,298,144.8,297.1,144.8z"/>
		</g>
		<g>
			<path fill="#5AB7B2" d="M343.3,561.9c-0.9,0-1.8-0.4-2.3-1.3c-16.8-26.4-16.2-89.8-15.5-177.4c0.4-48.2,0.9-102.8-1.3-162.4
				c-1.8-48.3-11.5-115-47.4-158.7c-22.9-27.9-45.8-33.6-50.7-33.6c-1.5,0-2.7-1.2-2.7-2.7c0-1.5,1.2-2.7,2.7-2.7
				c19.1,0,97.4,35.2,103.6,197.6c2.3,59.7,1.8,114.4,1.3,162.7c-0.8,86.7-1.4,149.3,14.6,174.4c0.8,1.3,0.4,3-0.8,3.8
				C344.3,561.8,343.8,561.9,343.3,561.9z"/>
		</g>
		<g>
			<path fill="#5AB7B2" d="M314.2,545.6c-0.8,0-1.6-0.3-2.1-1c-11-13.4-8.3-57.9-4.6-119.5c1.5-24.6,3.2-52.6,4-80.4
				c1.5-51.4-6.4-129-8.1-136.5c-0.3-1.5,0.6-2.9,2.1-3.3c1.5-0.3,2.9,0.6,3.3,2.1c1.7,7.6,9.7,86.1,8.2,137.9
				c-0.8,27.9-2.5,55.9-4,80.5c-3.4,55.8-6.3,104,3.4,115.8c1,1.2,0.8,2.9-0.4,3.8C315.4,545.4,314.8,545.6,314.2,545.6z"/>
		</g>
	</g>
</g>
</svg>
