<?xml version="1.0" encoding="utf-8"?>
<!-- Generator: Adobe Illustrator 20.1.0, SVG Export Plug-In . SVG Version: 6.00 Build 0)  -->
<svg version="1.1" id="Layer_1" xmlns="http://www.w3.org/2000/svg" xmlns:xlink="http://www.w3.org/1999/xlink" x="0px" y="0px"
	 viewBox="0 0 300 300" enable-background="new 0 0 300 300" xml:space="preserve">
<g>
	<path fill="#FFFFFF" d="M121.9,148.9c0-5.4,1.8-10.4,4.7-14.5c4.6-6.2,11.9-10.3,20.1-10.3c8.4,0,15.7,4.1,20.3,10.3
		c2.9,4.1,4.7,9.1,4.7,14.5c0,13.8-11.2,24.9-24.9,24.9C133,173.9,121.9,162.7,121.9,148.9z"/>
	<polygon fill="#FFFFFF" points="201.1,118.5 177.2,118.6 177.2,94.6 201.1,94.6 	"/>
	<path fill="#FFFFFF" d="M182.6,134.4h21.1v57.9c0,7.4-6.1,13.5-13.5,13.5h-86.7c-7.4,0-13.6-6.1-13.6-13.5v-57.9H111
		c-1.8,4.6-2.9,9.3-2.9,14.5c0,21.3,17.4,38.7,38.6,38.7c21.3,0,38.7-17.4,38.7-38.7C185.4,143.8,184.4,139,182.6,134.4z"/>
	<path fill="#006974" d="M150.1,10C72.7,10,10,72.7,10,150c0,77.3,62.7,140,140.1,140S290,227.3,290,150C290,72.7,227.4,10,150.1,10
		z M217.5,192.3c0,15.1-12.2,27.3-27.3,27.3h-86.7c-15.1,0-27.3-12.2-27.3-27.3v-86.7c0-15.1,12.2-27.3,27.3-27.3h86.7
		c15.1,0,27.3,12.2,27.3,27.3V192.3z"/>
	<path fill="#FFFFFF" d="M121.9,148.9c0-5.4,1.8-10.4,4.7-14.5c4.6-6.2,11.9-10.3,20.1-10.3c8.4,0,15.7,4.1,20.3,10.3
		c2.9,4.1,4.7,9.1,4.7,14.5c0,13.8-11.2,24.9-24.9,24.9C133,173.9,121.9,162.7,121.9,148.9z"/>
	<polygon fill="#FFFFFF" points="201.1,118.5 177.2,118.6 177.2,94.6 201.1,94.6 	"/>
	<path fill="#FFFFFF" d="M203.7,134.4v57.9c0,7.4-6.1,13.5-13.5,13.5h-86.7c-7.4,0-13.6-6.1-13.6-13.5v-57.9H111
		c-1.8,4.6-2.9,9.3-2.9,14.5c0,21.3,17.4,38.7,38.6,38.7c21.3,0,38.7-17.4,38.7-38.7c0-5.2-1.1-9.9-2.9-14.5H203.7z"/>
	<polygon fill="#006974" points="201.1,94.6 201.1,118.5 177.2,118.6 177.2,94.6 	"/>
	<path fill="#006974" d="M171.6,148.9c0,13.8-11.2,24.9-24.9,24.9c-13.7,0-24.8-11.1-24.8-24.9c0-5.4,1.8-10.4,4.7-14.5
		c4.6-6.2,11.9-10.3,20.1-10.3c8.4,0,15.7,4.1,20.3,10.3C169.8,138.5,171.6,143.5,171.6,148.9z"/>
	<path fill="#006974" d="M203.7,134.4v57.9c0,7.4-6.1,13.5-13.5,13.5h-86.7c-7.4,0-13.6-6.1-13.6-13.5v-57.9H111
		c-1.8,4.6-2.9,9.3-2.9,14.5c0,21.3,17.4,38.7,38.6,38.7c21.3,0,38.7-17.4,38.7-38.7c0-5.2-1.1-9.9-2.9-14.5H203.7z"/>
</g>
<g>
</g>
<g>
</g>
<g>
</g>
<g>
</g>
<g>
</g>
<g>
</g>
<g>
</g>
<g>
</g>
<g>
</g>
<g>
</g>
<g>
</g>
<g>
</g>
<g>
</g>
<g>
</g>
<g>
</g>
</svg>
