<?xml version="1.0" encoding="utf-8"?>
<!-- Generator: Adobe Illustrator 20.1.0, SVG Export Plug-In . SVG Version: 6.00 Build 0)  -->
<svg version="1.1" id="Layer_1" xmlns="http://www.w3.org/2000/svg" xmlns:xlink="http://www.w3.org/1999/xlink" x="0px" y="0px"
	 viewBox="0 0 300 300" enable-background="new 0 0 300 300" xml:space="preserve">
<path fill="#006974" d="M150.4,10.4c-77.3,0-140,62.7-140,140.1c0,77.3,62.7,139.9,140,139.9c77.3,0,140-62.6,140-139.9
	C290.4,73.1,227.7,10.4,150.4,10.4z M109.2,215.8h-28v-89.7h28V215.8z M94.4,114.9h-0.2c-10.1,0-16.7-6.8-16.7-15.6
	c0-8.9,6.7-15.6,17.1-15.6c10.3,0,16.7,6.7,16.9,15.6C111.6,108,105,114.9,94.4,114.9z M221.2,215.8h-31.8v-46.4
	c0-12.1-4.9-20.4-15.9-20.4c-8.3,0-12.9,5.5-15.1,10.9c-0.8,2-0.7,4.7-0.7,7.4v48.4h-31.4c0,0,0.4-82.1,0-89.7h31.4v14.1
	c1.9-6.2,11.9-15,27.9-15c19.9,0,35.6,13,35.6,40.7V215.8z"/>
<g>
</g>
<g>
</g>
<g>
</g>
<g>
</g>
<g>
</g>
<g>
</g>
<g>
</g>
<g>
</g>
<g>
</g>
<g>
</g>
<g>
</g>
<g>
</g>
<g>
</g>
<g>
</g>
<g>
</g>
</svg>
