<?xml version="1.0" encoding="utf-8"?>
<!-- Generator: Adobe Illustrator 20.1.0, SVG Export Plug-In . SVG Version: 6.00 Build 0)  -->
<svg version="1.1" id="Layer_1" xmlns="http://www.w3.org/2000/svg" xmlns:xlink="http://www.w3.org/1999/xlink" x="0px" y="0px"
	 viewBox="0 0 300 300" enable-background="new 0 0 300 300" xml:space="preserve">
<path fill="#006974" d="M150,10C72.7,10,10,72.7,10,150s62.7,140,140,140s140-62.7,140-140S227.3,10,150,10z M214.8,117.8
	c0.1,1.4,0.1,2.9,0.1,4.3c0,44.1-31.3,95.2-88.5,95.2c-17.6,0-33.9-5.5-47.6-15.1c2.4,0.4,4.9,0.5,7.4,0.5
	c14.5,0,27.9-5.3,38.6-14.4c-13.7-0.1-25.2-9.8-29-23.1c1.9,0.4,3.7,0.6,5.8,0.6c2.9,0,5.6-0.4,8.2-1.2C95.7,161.5,85,148,85,131.9
	v-0.5c4.1,2.5,8.9,4,14,4.2c-8.4-6-13.8-16.3-13.8-27.8c0-6.2,1.4-11.9,4.2-16.9c15.3,20.3,38.2,33.6,64,35c-0.5-2.5-0.8-5-0.8-7.7
	c0-18.5,13.9-33.4,31.2-33.4c8.9,0,17,4.1,22.7,10.7c7.1-1.7,13.7-4.3,19.8-8.2c-2.4,7.8-7.3,14.3-13.8,18.5
	c6.4-0.8,12.3-2.5,17.9-5.3C226.2,107.2,220.9,113,214.8,117.8z"/>
<g>
</g>
<g>
</g>
<g>
</g>
<g>
</g>
<g>
</g>
<g>
</g>
<g>
</g>
<g>
</g>
<g>
</g>
<g>
</g>
<g>
</g>
<g>
</g>
<g>
</g>
<g>
</g>
<g>
</g>
</svg>
